<?xml version="1.0" encoding="utf-8" standalone="no"?>
<!DOCTYPE svg PUBLIC "-//W3C//DTD SVG 1.1//EN"
  "http://www.w3.org/Graphics/SVG/1.1/DTD/svg11.dtd">
<svg xmlns:xlink="http://www.w3.org/1999/xlink" width="864pt" height="396pt" viewBox="0 0 864 396" xmlns="http://www.w3.org/2000/svg" version="1.1">
 <metadata>
  <rdf:RDF xmlns:dc="http://purl.org/dc/elements/1.1/" xmlns:cc="http://creativecommons.org/ns#" xmlns:rdf="http://www.w3.org/1999/02/22-rdf-syntax-ns#">
   <cc:Work>
    <dc:type rdf:resource="http://purl.org/dc/dcmitype/StillImage"/>
    <dc:date>2026-09-17T15:31:19.663651</dc:date>
    <dc:format>image/svg+xml</dc:format>
    <dc:creator>
     <cc:Agent>
      <dc:title>Matplotlib v3.10.5, https://matplotlib.org/</dc:title>
     </cc:Agent>
    </dc:creator>
   </cc:Work>
  </rdf:RDF>
 </metadata>
 <defs>
  <style type="text/css">*{stroke-linejoin: round; stroke-linecap: butt}</style>
 </defs>
 <g id="figure_1">
  <g id="patch_1">
   <path d="M 0 396
L 864 396
L 864 0
L 0 0
z
" style="fill: #f8fafc"/>
  </g>
  <g id="axes_1">
   <g id="patch_2">
    <path d="M 64.8 297
L 403.957895 297
L 403.957895 83.16
L 64.8 83.16
z
" style="fill: #ffffff"/>
   </g>
   <g id="FillBetweenPolyCollection_1">
    <defs>
     <path id="m48e48738ff" d="M 80.216268 -126.57556
L 80.216268 -118.909538
L 124.262748 -126.775771
L 212.355707 -161.293593
L 388.541627 -168.474421
L 388.541627 -225.631327
L 388.541627 -225.631327
L 212.355707 -203.326913
L 124.262748 -133.555781
L 80.216268 -126.57556
z
" style="stroke: #2563eb; stroke-opacity: 0.1"/>
    </defs>
    <g clip-path="url(#p852a22fd01)">
     <use xlink:href="#m48e48738ff" x="0" y="396" style="fill: #2563eb; fill-opacity: 0.1; stroke: #2563eb; stroke-opacity: 0.1"/>
    </g>
   </g>
   <g id="FillBetweenPolyCollection_2">
    <defs>
     <path id="m5e1fb59ed7" d="M 80.216268 -126.745094
L 80.216268 -124.646063
L 124.262748 -125.845593
L 212.355707 -138.466413
L 388.541627 -184.790789
L 388.541627 -247.635346
L 388.541627 -247.635346
L 212.355707 -173.599989
L 124.262748 -131.486208
L 80.216268 -126.745094
z
" style="stroke: #0d9488; stroke-opacity: 0.1"/>
    </defs>
    <g clip-path="url(#p852a22fd01)">
     <use xlink:href="#m5e1fb59ed7" x="0" y="396" style="fill: #0d9488; fill-opacity: 0.1; stroke: #0d9488; stroke-opacity: 0.1"/>
    </g>
   </g>
   <g id="FillBetweenPolyCollection_3">
    <defs>
     <path id="m484bf90c6c" d="M 80.216268 -124.965137
L 80.216268 -124.630274
L 124.262748 -125.915378
L 212.355707 -149.159365
L 388.541627 -172.261806
L 388.541627 -189.26651
L 388.541627 -189.26651
L 212.355707 -151.624174
L 124.262748 -133.072178
L 80.216268 -124.965137
z
" style="stroke: #9333ea; stroke-opacity: 0.1"/>
    </defs>
    <g clip-path="url(#p852a22fd01)">
     <use xlink:href="#m484bf90c6c" x="0" y="396" style="fill: #9333ea; fill-opacity: 0.1; stroke: #9333ea; stroke-opacity: 0.1"/>
    </g>
   </g>
   <g id="FillBetweenPolyCollection_4">
    <defs>
     <path id="m33778bcf5c" d="M 80.216268 -113.330333
L 80.216268 -113.015707
L 124.262748 -114.157106
L 212.355707 -122.629812
L 388.541627 -148.713888
L 388.541627 -302.673036
L 388.541627 -302.673036
L 212.355707 -147.291788
L 124.262748 -114.205071
L 80.216268 -113.330333
z
" style="stroke: #2563eb; stroke-opacity: 0.1"/>
    </defs>
    <g clip-path="url(#p852a22fd01)">
     <use xlink:href="#m33778bcf5c" x="0" y="396" style="fill: #2563eb; fill-opacity: 0.1; stroke: #2563eb; stroke-opacity: 0.1"/>
    </g>
   </g>
   <g id="FillBetweenPolyCollection_5">
    <defs>
     <path id="mda6126c00a" d="M 80.216268 -112.940608
L 80.216268 -112.855968
L 124.262748 -114.323522
L 212.355707 -156.051489
L 388.541627 -184.731451
L 388.541627 -203.918031
L 388.541627 -203.918031
L 212.355707 -203.298422
L 124.262748 -114.871888
L 80.216268 -112.940608
z
" style="stroke: #0d9488; stroke-opacity: 0.1"/>
    </defs>
    <g clip-path="url(#p852a22fd01)">
     <use xlink:href="#mda6126c00a" x="0" y="396" style="fill: #0d9488; fill-opacity: 0.1; stroke: #0d9488; stroke-opacity: 0.1"/>
    </g>
   </g>
   <g id="FillBetweenPolyCollection_6">
    <defs>
     <path id="m6f2f02a291" d="M 80.216268 -112.841043
L 80.216268 -112.812384
L 124.262748 -114.844407
L 212.355707 -145.570315
L 388.541627 -150.20642
L 388.541627 -303.314875
L 388.541627 -303.314875
L 212.355707 -155.535197
L 124.262748 -115.187592
L 80.216268 -112.841043
z
" style="stroke: #9333ea; stroke-opacity: 0.1"/>
    </defs>
    <g clip-path="url(#p852a22fd01)">
     <use xlink:href="#m6f2f02a291" x="0" y="396" style="fill: #9333ea; fill-opacity: 0.1; stroke: #9333ea; stroke-opacity: 0.1"/>
    </g>
   </g>
   <g id="matplotlib.axis_1">
    <g id="xtick_1">
     <g id="line2d_1">
      <defs>
       <path id="m45f2681587" d="M 0 0
L 0 3.5
" style="stroke: #000000; stroke-width: 0.8"/>
      </defs>
      <g>
       <use xlink:href="#m45f2681587" x="80.216268" y="297" style="stroke: #000000; stroke-width: 0.8"/>
      </g>
     </g>
     <g id="text_1">
      <text style="font-size: 11px; font-family: 'DejaVu Sans'; text-anchor: middle" x="80.216268" y="312.358281" transform="rotate(-0 80.216268 312.358281)">1</text>
     </g>
    </g>
    <g id="xtick_2">
     <g id="line2d_2">
      <g>
       <use xlink:href="#m45f2681587" x="124.262748" y="297" style="stroke: #000000; stroke-width: 0.8"/>
      </g>
     </g>
     <g id="text_2">
      <text style="font-size: 11px; font-family: 'DejaVu Sans'; text-anchor: middle" x="124.262748" y="312.358281" transform="rotate(-0 124.262748 312.358281)">2</text>
     </g>
    </g>
    <g id="xtick_3">
     <g id="line2d_3">
      <g>
       <use xlink:href="#m45f2681587" x="212.355707" y="297" style="stroke: #000000; stroke-width: 0.8"/>
      </g>
     </g>
     <g id="text_3">
      <text style="font-size: 11px; font-family: 'DejaVu Sans'; text-anchor: middle" x="212.355707" y="312.358281" transform="rotate(-0 212.355707 312.358281)">4</text>
     </g>
    </g>
    <g id="xtick_4">
     <g id="line2d_4">
      <g>
       <use xlink:href="#m45f2681587" x="388.541627" y="297" style="stroke: #000000; stroke-width: 0.8"/>
      </g>
     </g>
     <g id="text_4">
      <text style="font-size: 11px; font-family: 'DejaVu Sans'; text-anchor: middle" x="388.541627" y="312.358281" transform="rotate(-0 388.541627 312.358281)">8</text>
     </g>
    </g>
    <g id="text_5">
     <text style="font-size: 11px; font-family: 'DejaVu Sans'; text-anchor: middle" x="234.378947" y="327.004219" transform="rotate(-0 234.378947 327.004219)">Concurrent clients</text>
    </g>
   </g>
   <g id="matplotlib.axis_2">
    <g id="ytick_1">
     <g id="line2d_5">
      <path d="M 64.8 297
L 403.957895 297
" clip-path="url(#p852a22fd01)" style="fill: none; stroke: #b0b0b0; stroke-opacity: 0.2; stroke-width: 0.8; stroke-linecap: square"/>
     </g>
     <g id="line2d_6">
      <defs>
       <path id="m53a499363f" d="M 0 0
L -3.5 0
" style="stroke: #000000; stroke-width: 0.8"/>
      </defs>
      <g>
       <use xlink:href="#m53a499363f" x="64.8" y="297" style="stroke: #000000; stroke-width: 0.8"/>
      </g>
     </g>
     <g id="text_6">
      <text style="font-size: 11px; font-family: 'DejaVu Sans'; text-anchor: end" x="57.8" y="301.179141" transform="rotate(-0 57.8 301.179141)">0</text>
     </g>
    </g>
    <g id="ytick_2">
     <g id="line2d_7">
      <path d="M 64.8 272.746417
L 403.957895 272.746417
" clip-path="url(#p852a22fd01)" style="fill: none; stroke: #b0b0b0; stroke-opacity: 0.2; stroke-width: 0.8; stroke-linecap: square"/>
     </g>
     <g id="line2d_8">
      <g>
       <use xlink:href="#m53a499363f" x="64.8" y="272.746417" style="stroke: #000000; stroke-width: 0.8"/>
      </g>
     </g>
     <g id="text_7">
      <text style="font-size: 11px; font-family: 'DejaVu Sans'; text-anchor: end" x="57.8" y="276.925558" transform="rotate(-0 57.8 276.925558)">2500</text>
     </g>
    </g>
    <g id="ytick_3">
     <g id="line2d_9">
      <path d="M 64.8 248.492835
L 403.957895 248.492835
" clip-path="url(#p852a22fd01)" style="fill: none; stroke: #b0b0b0; stroke-opacity: 0.2; stroke-width: 0.8; stroke-linecap: square"/>
     </g>
     <g id="line2d_10">
      <g>
       <use xlink:href="#m53a499363f" x="64.8" y="248.492835" style="stroke: #000000; stroke-width: 0.8"/>
      </g>
     </g>
     <g id="text_8">
      <text style="font-size: 11px; font-family: 'DejaVu Sans'; text-anchor: end" x="57.8" y="252.671976" transform="rotate(-0 57.8 252.671976)">5000</text>
     </g>
    </g>
    <g id="ytick_4">
     <g id="line2d_11">
      <path d="M 64.8 224.239252
L 403.957895 224.239252
" clip-path="url(#p852a22fd01)" style="fill: none; stroke: #b0b0b0; stroke-opacity: 0.2; stroke-width: 0.8; stroke-linecap: square"/>
     </g>
     <g id="line2d_12">
      <g>
       <use xlink:href="#m53a499363f" x="64.8" y="224.239252" style="stroke: #000000; stroke-width: 0.8"/>
      </g>
     </g>
     <g id="text_9">
      <text style="font-size: 11px; font-family: 'DejaVu Sans'; text-anchor: end" x="57.8" y="228.418393" transform="rotate(-0 57.8 228.418393)">7500</text>
     </g>
    </g>
    <g id="ytick_5">
     <g id="line2d_13">
      <path d="M 64.8 199.98567
L 403.957895 199.98567
" clip-path="url(#p852a22fd01)" style="fill: none; stroke: #b0b0b0; stroke-opacity: 0.2; stroke-width: 0.8; stroke-linecap: square"/>
     </g>
     <g id="line2d_14">
      <g>
       <use xlink:href="#m53a499363f" x="64.8" y="199.98567" style="stroke: #000000; stroke-width: 0.8"/>
      </g>
     </g>
     <g id="text_10">
      <text style="font-size: 11px; font-family: 'DejaVu Sans'; text-anchor: end" x="57.8" y="204.164811" transform="rotate(-0 57.8 204.164811)">10000</text>
     </g>
    </g>
    <g id="ytick_6">
     <g id="line2d_15">
      <path d="M 64.8 175.732087
L 403.957895 175.732087
" clip-path="url(#p852a22fd01)" style="fill: none; stroke: #b0b0b0; stroke-opacity: 0.2; stroke-width: 0.8; stroke-linecap: square"/>
     </g>
     <g id="line2d_16">
      <g>
       <use xlink:href="#m53a499363f" x="64.8" y="175.732087" style="stroke: #000000; stroke-width: 0.8"/>
      </g>
     </g>
     <g id="text_11">
      <text style="font-size: 11px; font-family: 'DejaVu Sans'; text-anchor: end" x="57.8" y="179.911228" transform="rotate(-0 57.8 179.911228)">12500</text>
     </g>
    </g>
    <g id="ytick_7">
     <g id="line2d_17">
      <path d="M 64.8 151.478505
L 403.957895 151.478505
" clip-path="url(#p852a22fd01)" style="fill: none; stroke: #b0b0b0; stroke-opacity: 0.2; stroke-width: 0.8; stroke-linecap: square"/>
     </g>
     <g id="line2d_18">
      <g>
       <use xlink:href="#m53a499363f" x="64.8" y="151.478505" style="stroke: #000000; stroke-width: 0.8"/>
      </g>
     </g>
     <g id="text_12">
      <text style="font-size: 11px; font-family: 'DejaVu Sans'; text-anchor: end" x="57.8" y="155.657646" transform="rotate(-0 57.8 155.657646)">15000</text>
     </g>
    </g>
    <g id="ytick_8">
     <g id="line2d_19">
      <path d="M 64.8 127.224922
L 403.957895 127.224922
" clip-path="url(#p852a22fd01)" style="fill: none; stroke: #b0b0b0; stroke-opacity: 0.2; stroke-width: 0.8; stroke-linecap: square"/>
     </g>
     <g id="line2d_20">
      <g>
       <use xlink:href="#m53a499363f" x="64.8" y="127.224922" style="stroke: #000000; stroke-width: 0.8"/>
      </g>
     </g>
     <g id="text_13">
      <text style="font-size: 11px; font-family: 'DejaVu Sans'; text-anchor: end" x="57.8" y="131.404063" transform="rotate(-0 57.8 131.404063)">17500</text>
     </g>
    </g>
    <g id="ytick_9">
     <g id="line2d_21">
      <path d="M 64.8 102.97134
L 403.957895 102.97134
" clip-path="url(#p852a22fd01)" style="fill: none; stroke: #b0b0b0; stroke-opacity: 0.2; stroke-width: 0.8; stroke-linecap: square"/>
     </g>
     <g id="line2d_22">
      <g>
       <use xlink:href="#m53a499363f" x="64.8" y="102.97134" style="stroke: #000000; stroke-width: 0.8"/>
      </g>
     </g>
     <g id="text_14">
      <text style="font-size: 11px; font-family: 'DejaVu Sans'; text-anchor: end" x="57.8" y="107.150481" transform="rotate(-0 57.8 107.150481)">20000</text>
     </g>
    </g>
    <g id="text_15">
     <text style="font-size: 11px; font-family: 'DejaVu Sans'; text-anchor: middle" x="16.518594" y="190.08" transform="rotate(-90 16.518594 190.08)">Transfer time (ms) · lower is better</text>
    </g>
   </g>
   <g id="line2d_23">
    <path d="M 80.216268 270.309992
L 124.262748 266.885544
L 212.355707 233.210598
L 388.541627 179.721104
" clip-path="url(#p852a22fd01)" style="fill: none; stroke: #2563eb; stroke-width: 2.3; stroke-linecap: square"/>
    <defs>
     <path id="ma8776a6f63" d="M 0 3
C 0.795609 3 1.55874 2.683901 2.12132 2.12132
C 2.683901 1.55874 3 0.795609 3 0
C 3 -0.795609 2.683901 -1.55874 2.12132 -2.12132
C 1.55874 -2.683901 0.795609 -3 0 -3
C -0.795609 -3 -1.55874 -2.683901 -2.12132 -2.12132
C -2.683901 -1.55874 -3 -0.795609 -3 0
C -3 0.795609 -2.683901 1.55874 -2.12132 2.12132
C -1.55874 2.683901 -0.795609 3 0 3
z
" style="stroke: #2563eb"/>
    </defs>
    <g clip-path="url(#p852a22fd01)">
     <use xlink:href="#ma8776a6f63" x="80.216268" y="270.309992" style="fill: #2563eb; stroke: #2563eb"/>
     <use xlink:href="#ma8776a6f63" x="124.262748" y="266.885544" style="fill: #2563eb; stroke: #2563eb"/>
     <use xlink:href="#ma8776a6f63" x="212.355707" y="233.210598" style="fill: #2563eb; stroke: #2563eb"/>
     <use xlink:href="#ma8776a6f63" x="388.541627" y="179.721104" style="fill: #2563eb; stroke: #2563eb"/>
    </g>
   </g>
   <g id="line2d_24">
    <path d="M 80.216268 270.688972
L 124.262748 268.972343
L 212.355707 237.131869
L 388.541627 204.950709
" clip-path="url(#p852a22fd01)" style="fill: none; stroke: #0d9488; stroke-width: 2.3; stroke-linecap: square"/>
    <defs>
     <path id="m1c8b83a71a" d="M 0 3
C 0.795609 3 1.55874 2.683901 2.12132 2.12132
C 2.683901 1.55874 3 0.795609 3 0
C 3 -0.795609 2.683901 -1.55874 2.12132 -2.12132
C 1.55874 -2.683901 0.795609 -3 0 -3
C -0.795609 -3 -1.55874 -2.683901 -2.12132 -2.12132
C -2.683901 -1.55874 -3 -0.795609 -3 0
C -3 0.795609 -2.683901 1.55874 -2.12132 2.12132
C -1.55874 2.683901 -0.795609 3 0 3
z
" style="stroke: #0d9488"/>
    </defs>
    <g clip-path="url(#p852a22fd01)">
     <use xlink:href="#m1c8b83a71a" x="80.216268" y="270.688972" style="fill: #0d9488; stroke: #0d9488"/>
     <use xlink:href="#m1c8b83a71a" x="124.262748" y="268.972343" style="fill: #0d9488; stroke: #0d9488"/>
     <use xlink:href="#m1c8b83a71a" x="212.355707" y="237.131869" style="fill: #0d9488; stroke: #0d9488"/>
     <use xlink:href="#m1c8b83a71a" x="388.541627" y="204.950709" style="fill: #0d9488; stroke: #0d9488"/>
    </g>
   </g>
   <g id="line2d_25">
    <path d="M 80.216268 271.214519
L 124.262748 267.816784
L 212.355707 246.439969
L 388.541627 212.466839
" clip-path="url(#p852a22fd01)" style="fill: none; stroke: #9333ea; stroke-width: 2.3; stroke-linecap: square"/>
    <defs>
     <path id="m2aba450bf8" d="M 0 3
C 0.795609 3 1.55874 2.683901 2.12132 2.12132
C 2.683901 1.55874 3 0.795609 3 0
C 3 -0.795609 2.683901 -1.55874 2.12132 -2.12132
C 1.55874 -2.683901 0.795609 -3 0 -3
C -0.795609 -3 -1.55874 -2.683901 -2.12132 -2.12132
C -2.683901 -1.55874 -3 -0.795609 -3 0
C -3 0.795609 -2.683901 1.55874 -2.12132 2.12132
C -1.55874 2.683901 -0.795609 3 0 3
z
" style="stroke: #9333ea"/>
    </defs>
    <g clip-path="url(#p852a22fd01)">
     <use xlink:href="#m2aba450bf8" x="80.216268" y="271.214519" style="fill: #9333ea; stroke: #9333ea"/>
     <use xlink:href="#m2aba450bf8" x="124.262748" y="267.816784" style="fill: #9333ea; stroke: #9333ea"/>
     <use xlink:href="#m2aba450bf8" x="212.355707" y="246.439969" style="fill: #9333ea; stroke: #9333ea"/>
     <use xlink:href="#m2aba450bf8" x="388.541627" y="212.466839" style="fill: #9333ea; stroke: #9333ea"/>
    </g>
   </g>
   <g id="line2d_26">
    <path d="M 80.216268 282.975675
L 124.262748 281.829421
L 212.355707 266.776888
L 388.541627 247.281844
" clip-path="url(#p852a22fd01)" style="fill: none; stroke-dasharray: 8.51,3.68; stroke-dashoffset: 0; stroke: #2563eb; stroke-width: 2.3"/>
    <defs>
     <path id="m995cf30a0d" d="M -3 3
L 3 3
L 3 -3
L -3 -3
z
" style="stroke: #2563eb; stroke-linejoin: miter"/>
    </defs>
    <g clip-path="url(#p852a22fd01)">
     <use xlink:href="#m995cf30a0d" x="80.216268" y="282.975675" style="fill: #2563eb; stroke: #2563eb; stroke-linejoin: miter"/>
     <use xlink:href="#m995cf30a0d" x="124.262748" y="281.829421" style="fill: #2563eb; stroke: #2563eb; stroke-linejoin: miter"/>
     <use xlink:href="#m995cf30a0d" x="212.355707" y="266.776888" style="fill: #2563eb; stroke: #2563eb; stroke-linejoin: miter"/>
     <use xlink:href="#m995cf30a0d" x="388.541627" y="247.281844" style="fill: #2563eb; stroke: #2563eb; stroke-linejoin: miter"/>
    </g>
   </g>
   <g id="line2d_27">
    <path d="M 80.216268 283.086963
L 124.262748 281.496973
L 212.355707 197.668421
L 388.541627 207.648208
" clip-path="url(#p852a22fd01)" style="fill: none; stroke-dasharray: 8.51,3.68; stroke-dashoffset: 0; stroke: #0d9488; stroke-width: 2.3"/>
    <defs>
     <path id="m3bd399c2a4" d="M -3 3
L 3 3
L 3 -3
L -3 -3
z
" style="stroke: #0d9488; stroke-linejoin: miter"/>
    </defs>
    <g clip-path="url(#p852a22fd01)">
     <use xlink:href="#m3bd399c2a4" x="80.216268" y="283.086963" style="fill: #0d9488; stroke: #0d9488; stroke-linejoin: miter"/>
     <use xlink:href="#m3bd399c2a4" x="124.262748" y="281.496973" style="fill: #0d9488; stroke: #0d9488; stroke-linejoin: miter"/>
     <use xlink:href="#m3bd399c2a4" x="212.355707" y="197.668421" style="fill: #0d9488; stroke: #0d9488; stroke-linejoin: miter"/>
     <use xlink:href="#m3bd399c2a4" x="388.541627" y="207.648208" style="fill: #0d9488; stroke: #0d9488; stroke-linejoin: miter"/>
    </g>
   </g>
   <g id="line2d_28">
    <path d="M 80.216268 283.164795
L 124.262748 280.830879
L 212.355707 242.829584
L 388.541627 184.847919
" clip-path="url(#p852a22fd01)" style="fill: none; stroke-dasharray: 8.51,3.68; stroke-dashoffset: 0; stroke: #9333ea; stroke-width: 2.3"/>
    <defs>
     <path id="m907af44d4c" d="M -3 3
L 3 3
L 3 -3
L -3 -3
z
" style="stroke: #9333ea; stroke-linejoin: miter"/>
    </defs>
    <g clip-path="url(#p852a22fd01)">
     <use xlink:href="#m907af44d4c" x="80.216268" y="283.164795" style="fill: #9333ea; stroke: #9333ea; stroke-linejoin: miter"/>
     <use xlink:href="#m907af44d4c" x="124.262748" y="280.830879" style="fill: #9333ea; stroke: #9333ea; stroke-linejoin: miter"/>
     <use xlink:href="#m907af44d4c" x="212.355707" y="242.829584" style="fill: #9333ea; stroke: #9333ea; stroke-linejoin: miter"/>
     <use xlink:href="#m907af44d4c" x="388.541627" y="184.847919" style="fill: #9333ea; stroke: #9333ea; stroke-linejoin: miter"/>
    </g>
   </g>
   <g id="patch_3">
    <path d="M 64.8 297
L 64.8 83.16
" style="fill: none; stroke: #000000; stroke-width: 0.8; stroke-linejoin: miter; stroke-linecap: square"/>
   </g>
   <g id="patch_4">
    <path d="M 64.8 297
L 403.957895 297
" style="fill: none; stroke: #000000; stroke-width: 0.8; stroke-linejoin: miter; stroke-linecap: square"/>
   </g>
   <g id="text_16">
    <text style="font-weight: 700; font-size: 12px; font-family: 'DejaVu Sans'; text-anchor: start" x="64.8" y="69.16" transform="rotate(-0 64.8 69.16)">Time until all clients receive the payload</text>
   </g>
  </g>
  <g id="axes_2">
   <g id="patch_5">
    <path d="M 498.922105 297
L 838.08 297
L 838.08 83.16
L 498.922105 83.16
z
" style="fill: #ffffff"/>
   </g>
   <g id="FillBetweenPolyCollection_7">
    <defs>
     <path id="m84c485f3b8" d="M 514.338373 -160.047027
L 514.338373 -143.075918
L 558.384853 -169.345285
L 646.477813 -145.600367
L 822.663732 -175.784673
L 822.663732 -238.955755
L 822.663732 -238.955755
L 646.477813 -177.044503
L 558.384853 -186.516428
L 514.338373 -160.047027
z
" style="stroke: #2563eb; stroke-opacity: 0.1"/>
    </defs>
    <g clip-path="url(#p046b87a7e7)">
     <use xlink:href="#m84c485f3b8" x="0" y="396" style="fill: #2563eb; fill-opacity: 0.1; stroke: #2563eb; stroke-opacity: 0.1"/>
    </g>
   </g>
   <g id="FillBetweenPolyCollection_8">
    <defs>
     <path id="m9fb115dbcb" d="M 514.338373 -146.391997
L 514.338373 -142.806597
L 558.384853 -173.826715
L 646.477813 -164.169882
L 822.663732 -164.417448
L 822.663732 -212.337866
L 822.663732 -212.337866
L 646.477813 -222.18506
L 558.384853 -189.548802
L 514.338373 -146.391997
z
" style="stroke: #0d9488; stroke-opacity: 0.1"/>
    </defs>
    <g clip-path="url(#p046b87a7e7)">
     <use xlink:href="#m9fb115dbcb" x="0" y="396" style="fill: #0d9488; fill-opacity: 0.1; stroke: #0d9488; stroke-opacity: 0.1"/>
    </g>
   </g>
   <g id="FillBetweenPolyCollection_9">
    <defs>
     <path id="m6a4f0f10b8" d="M 514.338373 -146.421191
L 514.338373 -145.809618
L 558.384853 -170.343729
L 646.477813 -191.384775
L 822.663732 -206.718189
L 822.663732 -231.72052
L 822.663732 -231.72052
L 646.477813 -195.924522
L 558.384853 -189.314029
L 514.338373 -146.421191
z
" style="stroke: #9333ea; stroke-opacity: 0.1"/>
    </defs>
    <g clip-path="url(#p046b87a7e7)">
     <use xlink:href="#m6a4f0f10b8" x="0" y="396" style="fill: #9333ea; fill-opacity: 0.1; stroke: #9333ea; stroke-opacity: 0.1"/>
    </g>
   </g>
   <g id="FillBetweenPolyCollection_10">
    <defs>
     <path id="mc6fbe63c5a" d="M 514.338373 -185.718291
L 514.338373 -183.814369
L 558.384853 -258.870106
L 646.477813 -199.672863
L 822.663732 -146.739972
L 822.663732 -294.58609
L 822.663732 -294.58609
L 646.477813 -304.743171
L 558.384853 -259.376015
L 514.338373 -185.718291
z
" style="stroke: #2563eb; stroke-opacity: 0.1"/>
    </defs>
    <g clip-path="url(#p046b87a7e7)">
     <use xlink:href="#mc6fbe63c5a" x="0" y="396" style="fill: #2563eb; fill-opacity: 0.1; stroke: #2563eb; stroke-opacity: 0.1"/>
    </g>
   </g>
   <g id="FillBetweenPolyCollection_11">
    <defs>
     <path id="m71c2f08ef0" d="M 514.338373 -186.718021
L 514.338373 -186.185446
L 558.384853 -252.153564
L 646.477813 -145.613097
L 822.663732 -191.675634
L 822.663732 -212.416311
L 822.663732 -212.416311
L 646.477813 -184.215524
L 558.384853 -257.634306
L 514.338373 -186.718021
z
" style="stroke: #0d9488; stroke-opacity: 0.1"/>
    </defs>
    <g clip-path="url(#p046b87a7e7)">
     <use xlink:href="#m71c2f08ef0" x="0" y="396" style="fill: #0d9488; fill-opacity: 0.1; stroke: #0d9488; stroke-opacity: 0.1"/>
    </g>
   </g>
   <g id="FillBetweenPolyCollection_12">
    <defs>
     <path id="m6b4d99b5c9" d="M 514.338373 -186.994808
L 514.338373 -186.812614
L 558.384853 -249.166635
L 646.477813 -184.993731
L 822.663732 -146.59
L 822.663732 -288.885273
L 822.663732 -288.885273
L 646.477813 -203.394237
L 558.384853 -252.419195
L 514.338373 -186.994808
z
" style="stroke: #9333ea; stroke-opacity: 0.1"/>
    </defs>
    <g clip-path="url(#p046b87a7e7)">
     <use xlink:href="#m6b4d99b5c9" x="0" y="396" style="fill: #9333ea; fill-opacity: 0.1; stroke: #9333ea; stroke-opacity: 0.1"/>
    </g>
   </g>
   <g id="matplotlib.axis_3">
    <g id="xtick_5">
     <g id="line2d_29">
      <g>
       <use xlink:href="#m45f2681587" x="514.338373" y="297" style="stroke: #000000; stroke-width: 0.8"/>
      </g>
     </g>
     <g id="text_17">
      <text style="font-size: 11px; font-family: 'DejaVu Sans'; text-anchor: middle" x="514.338373" y="312.358281" transform="rotate(-0 514.338373 312.358281)">1</text>
     </g>
    </g>
    <g id="xtick_6">
     <g id="line2d_30">
      <g>
       <use xlink:href="#m45f2681587" x="558.384853" y="297" style="stroke: #000000; stroke-width: 0.8"/>
      </g>
     </g>
     <g id="text_18">
      <text style="font-size: 11px; font-family: 'DejaVu Sans'; text-anchor: middle" x="558.384853" y="312.358281" transform="rotate(-0 558.384853 312.358281)">2</text>
     </g>
    </g>
    <g id="xtick_7">
     <g id="line2d_31">
      <g>
       <use xlink:href="#m45f2681587" x="646.477813" y="297" style="stroke: #000000; stroke-width: 0.8"/>
      </g>
     </g>
     <g id="text_19">
      <text style="font-size: 11px; font-family: 'DejaVu Sans'; text-anchor: middle" x="646.477813" y="312.358281" transform="rotate(-0 646.477813 312.358281)">4</text>
     </g>
    </g>
    <g id="xtick_8">
     <g id="line2d_32">
      <g>
       <use xlink:href="#m45f2681587" x="822.663732" y="297" style="stroke: #000000; stroke-width: 0.8"/>
      </g>
     </g>
     <g id="text_20">
      <text style="font-size: 11px; font-family: 'DejaVu Sans'; text-anchor: middle" x="822.663732" y="312.358281" transform="rotate(-0 822.663732 312.358281)">8</text>
     </g>
    </g>
    <g id="text_21">
     <text style="font-size: 11px; font-family: 'DejaVu Sans'; text-anchor: middle" x="668.501053" y="327.004219" transform="rotate(-0 668.501053 327.004219)">Concurrent clients</text>
    </g>
   </g>
   <g id="matplotlib.axis_4">
    <g id="ytick_10">
     <g id="line2d_33">
      <path d="M 498.922105 297
L 838.08 297
" clip-path="url(#p046b87a7e7)" style="fill: none; stroke: #b0b0b0; stroke-opacity: 0.2; stroke-width: 0.8; stroke-linecap: square"/>
     </g>
     <g id="line2d_34">
      <g>
       <use xlink:href="#m53a499363f" x="498.922105" y="297" style="stroke: #000000; stroke-width: 0.8"/>
      </g>
     </g>
     <g id="text_22">
      <text style="font-size: 11px; font-family: 'DejaVu Sans'; text-anchor: end" x="491.922105" y="301.179141" transform="rotate(-0 491.922105 301.179141)">0</text>
     </g>
    </g>
    <g id="ytick_11">
     <g id="line2d_35">
      <path d="M 498.922105 265.679418
L 838.08 265.679418
" clip-path="url(#p046b87a7e7)" style="fill: none; stroke: #b0b0b0; stroke-opacity: 0.2; stroke-width: 0.8; stroke-linecap: square"/>
     </g>
     <g id="line2d_36">
      <g>
       <use xlink:href="#m53a499363f" x="498.922105" y="265.679418" style="stroke: #000000; stroke-width: 0.8"/>
      </g>
     </g>
     <g id="text_23">
      <text style="font-size: 11px; font-family: 'DejaVu Sans'; text-anchor: end" x="491.922105" y="269.858558" transform="rotate(-0 491.922105 269.858558)">1</text>
     </g>
    </g>
    <g id="ytick_12">
     <g id="line2d_37">
      <path d="M 498.922105 234.358835
L 838.08 234.358835
" clip-path="url(#p046b87a7e7)" style="fill: none; stroke: #b0b0b0; stroke-opacity: 0.2; stroke-width: 0.8; stroke-linecap: square"/>
     </g>
     <g id="line2d_38">
      <g>
       <use xlink:href="#m53a499363f" x="498.922105" y="234.358835" style="stroke: #000000; stroke-width: 0.8"/>
      </g>
     </g>
     <g id="text_24">
      <text style="font-size: 11px; font-family: 'DejaVu Sans'; text-anchor: end" x="491.922105" y="238.537976" transform="rotate(-0 491.922105 238.537976)">2</text>
     </g>
    </g>
    <g id="ytick_13">
     <g id="line2d_39">
      <path d="M 498.922105 203.038253
L 838.08 203.038253
" clip-path="url(#p046b87a7e7)" style="fill: none; stroke: #b0b0b0; stroke-opacity: 0.2; stroke-width: 0.8; stroke-linecap: square"/>
     </g>
     <g id="line2d_40">
      <g>
       <use xlink:href="#m53a499363f" x="498.922105" y="203.038253" style="stroke: #000000; stroke-width: 0.8"/>
      </g>
     </g>
     <g id="text_25">
      <text style="font-size: 11px; font-family: 'DejaVu Sans'; text-anchor: end" x="491.922105" y="207.217394" transform="rotate(-0 491.922105 207.217394)">3</text>
     </g>
    </g>
    <g id="ytick_14">
     <g id="line2d_41">
      <path d="M 498.922105 171.717671
L 838.08 171.717671
" clip-path="url(#p046b87a7e7)" style="fill: none; stroke: #b0b0b0; stroke-opacity: 0.2; stroke-width: 0.8; stroke-linecap: square"/>
     </g>
     <g id="line2d_42">
      <g>
       <use xlink:href="#m53a499363f" x="498.922105" y="171.717671" style="stroke: #000000; stroke-width: 0.8"/>
      </g>
     </g>
     <g id="text_26">
      <text style="font-size: 11px; font-family: 'DejaVu Sans'; text-anchor: end" x="491.922105" y="175.896811" transform="rotate(-0 491.922105 175.896811)">4</text>
     </g>
    </g>
    <g id="ytick_15">
     <g id="line2d_43">
      <path d="M 498.922105 140.397089
L 838.08 140.397089
" clip-path="url(#p046b87a7e7)" style="fill: none; stroke: #b0b0b0; stroke-opacity: 0.2; stroke-width: 0.8; stroke-linecap: square"/>
     </g>
     <g id="line2d_44">
      <g>
       <use xlink:href="#m53a499363f" x="498.922105" y="140.397089" style="stroke: #000000; stroke-width: 0.8"/>
      </g>
     </g>
     <g id="text_27">
      <text style="font-size: 11px; font-family: 'DejaVu Sans'; text-anchor: end" x="491.922105" y="144.576229" transform="rotate(-0 491.922105 144.576229)">5</text>
     </g>
    </g>
    <g id="ytick_16">
     <g id="line2d_45">
      <path d="M 498.922105 109.076506
L 838.08 109.076506
" clip-path="url(#p046b87a7e7)" style="fill: none; stroke: #b0b0b0; stroke-opacity: 0.2; stroke-width: 0.8; stroke-linecap: square"/>
     </g>
     <g id="line2d_46">
      <g>
       <use xlink:href="#m53a499363f" x="498.922105" y="109.076506" style="stroke: #000000; stroke-width: 0.8"/>
      </g>
     </g>
     <g id="text_28">
      <text style="font-size: 11px; font-family: 'DejaVu Sans'; text-anchor: end" x="491.922105" y="113.255647" transform="rotate(-0 491.922105 113.255647)">6</text>
     </g>
    </g>
    <g id="text_29">
     <text style="font-size: 11px; font-family: 'DejaVu Sans'; text-anchor: middle" x="478.635699" y="190.08" transform="rotate(-90 478.635699 190.08)">GiB/s · higher is better</text>
    </g>
   </g>
   <g id="line2d_47">
    <path d="M 514.338373 251.461681
L 558.384853 216.280089
L 646.477813 220.785577
L 822.663732 214.092117
" clip-path="url(#p046b87a7e7)" style="fill: none; stroke: #2563eb; stroke-width: 2.3; stroke-linecap: square"/>
    <g clip-path="url(#p046b87a7e7)">
     <use xlink:href="#ma8776a6f63" x="514.338373" y="251.461681" style="fill: #2563eb; stroke: #2563eb"/>
     <use xlink:href="#ma8776a6f63" x="558.384853" y="216.280089" style="fill: #2563eb; stroke: #2563eb"/>
     <use xlink:href="#ma8776a6f63" x="646.477813" y="220.785577" style="fill: #2563eb; stroke: #2563eb"/>
     <use xlink:href="#ma8776a6f63" x="822.663732" y="214.092117" style="fill: #2563eb; stroke: #2563eb"/>
    </g>
   </g>
   <g id="line2d_48">
    <path d="M 514.338373 250.805753
L 558.384853 210.270087
L 646.477813 215.793648
L 822.663732 191.368062
" clip-path="url(#p046b87a7e7)" style="fill: none; stroke: #0d9488; stroke-width: 2.3; stroke-linecap: square"/>
    <g clip-path="url(#p046b87a7e7)">
     <use xlink:href="#m1c8b83a71a" x="514.338373" y="250.805753" style="fill: #0d9488; stroke: #0d9488"/>
     <use xlink:href="#m1c8b83a71a" x="558.384853" y="210.270087" style="fill: #0d9488; stroke: #0d9488"/>
     <use xlink:href="#m1c8b83a71a" x="646.477813" y="215.793648" style="fill: #0d9488; stroke: #0d9488"/>
     <use xlink:href="#m1c8b83a71a" x="822.663732" y="191.368062" style="fill: #0d9488; stroke: #0d9488"/>
    </g>
   </g>
   <g id="line2d_49">
    <path d="M 514.338373 249.864245
L 558.384853 213.704306
L 646.477813 200.843561
L 822.663732 181.975969
" clip-path="url(#p046b87a7e7)" style="fill: none; stroke: #9333ea; stroke-width: 2.3; stroke-linecap: square"/>
    <g clip-path="url(#p046b87a7e7)">
     <use xlink:href="#m2aba450bf8" x="514.338373" y="249.864245" style="fill: #9333ea; stroke: #9333ea"/>
     <use xlink:href="#m2aba450bf8" x="558.384853" y="213.704306" style="fill: #9333ea; stroke: #9333ea"/>
     <use xlink:href="#m2aba450bf8" x="646.477813" y="200.843561" style="fill: #9333ea; stroke: #9333ea"/>
     <use xlink:href="#m2aba450bf8" x="822.663732" y="181.975969" style="fill: #9333ea; stroke: #9333ea"/>
    </g>
   </g>
   <g id="line2d_50">
    <path d="M 514.338373 210.334999
L 558.384853 136.766417
L 646.477813 136.140572
L 822.663732 101.430698
" clip-path="url(#p046b87a7e7)" style="fill: none; stroke-dasharray: 8.51,3.68; stroke-dashoffset: 0; stroke: #2563eb; stroke-width: 2.3"/>
    <g clip-path="url(#p046b87a7e7)">
     <use xlink:href="#m995cf30a0d" x="514.338373" y="210.334999" style="fill: #2563eb; stroke: #2563eb; stroke-linejoin: miter"/>
     <use xlink:href="#m995cf30a0d" x="558.384853" y="136.766417" style="fill: #2563eb; stroke: #2563eb; stroke-linejoin: miter"/>
     <use xlink:href="#m995cf30a0d" x="646.477813" y="136.140572" style="fill: #2563eb; stroke: #2563eb; stroke-linejoin: miter"/>
     <use xlink:href="#m995cf30a0d" x="822.663732" y="101.430698" style="fill: #2563eb; stroke: #2563eb; stroke-linejoin: miter"/>
    </g>
   </g>
   <g id="line2d_51">
    <path d="M 514.338373 209.641782
L 558.384853 140.202475
L 646.477813 248.056124
L 822.663732 188.179071
" clip-path="url(#p046b87a7e7)" style="fill: none; stroke-dasharray: 8.51,3.68; stroke-dashoffset: 0; stroke: #0d9488; stroke-width: 2.3"/>
    <g clip-path="url(#p046b87a7e7)">
     <use xlink:href="#m3bd399c2a4" x="514.338373" y="209.641782" style="fill: #0d9488; stroke: #0d9488; stroke-linejoin: miter"/>
     <use xlink:href="#m3bd399c2a4" x="558.384853" y="140.202475" style="fill: #0d9488; stroke: #0d9488; stroke-linejoin: miter"/>
     <use xlink:href="#m3bd399c2a4" x="646.477813" y="248.056124" style="fill: #0d9488; stroke: #0d9488; stroke-linejoin: miter"/>
     <use xlink:href="#m3bd399c2a4" x="822.663732" y="188.179071" style="fill: #0d9488; stroke: #0d9488; stroke-linejoin: miter"/>
    </g>
   </g>
   <g id="line2d_52">
    <path d="M 514.338373 209.150332
L 558.384853 146.661814
L 646.477813 207.252258
L 822.663732 210.302144
" clip-path="url(#p046b87a7e7)" style="fill: none; stroke-dasharray: 8.51,3.68; stroke-dashoffset: 0; stroke: #9333ea; stroke-width: 2.3"/>
    <g clip-path="url(#p046b87a7e7)">
     <use xlink:href="#m907af44d4c" x="514.338373" y="209.150332" style="fill: #9333ea; stroke: #9333ea; stroke-linejoin: miter"/>
     <use xlink:href="#m907af44d4c" x="558.384853" y="146.661814" style="fill: #9333ea; stroke: #9333ea; stroke-linejoin: miter"/>
     <use xlink:href="#m907af44d4c" x="646.477813" y="207.252258" style="fill: #9333ea; stroke: #9333ea; stroke-linejoin: miter"/>
     <use xlink:href="#m907af44d4c" x="822.663732" y="210.302144" style="fill: #9333ea; stroke: #9333ea; stroke-linejoin: miter"/>
    </g>
   </g>
   <g id="patch_6">
    <path d="M 498.922105 297
L 498.922105 83.16
" style="fill: none; stroke: #000000; stroke-width: 0.8; stroke-linejoin: miter; stroke-linecap: square"/>
   </g>
   <g id="patch_7">
    <path d="M 498.922105 297
L 838.08 297
" style="fill: none; stroke: #000000; stroke-width: 0.8; stroke-linejoin: miter; stroke-linecap: square"/>
   </g>
   <g id="text_30">
    <text style="font-weight: 700; font-size: 12px; font-family: 'DejaVu Sans'; text-anchor: start" x="498.922105" y="69.16" transform="rotate(-0 498.922105 69.16)">Aggregate delivery throughput</text>
   </g>
   <g id="legend_1">
    <g id="line2d_53">
     <path d="M 617.006287 94.948594
L 626.006287 94.948594
L 635.006287 94.948594
" style="fill: none; stroke: #2563eb; stroke-width: 2.3; stroke-linecap: square"/>
     <g>
      <use xlink:href="#ma8776a6f63" x="626.006287" y="94.948594" style="fill: #2563eb; stroke: #2563eb"/>
     </g>
    </g>
    <g id="text_31">
     <text style="font-size: 9px; font-family: 'DejaVu Sans'; text-anchor: start" x="642.206287" y="98.098594" transform="rotate(-0 642.206287 98.098594)">1 middle · HTTP</text>
    </g>
    <g id="line2d_54">
     <path d="M 617.006287 108.158906
L 626.006287 108.158906
L 635.006287 108.158906
" style="fill: none; stroke: #0d9488; stroke-width: 2.3; stroke-linecap: square"/>
     <g>
      <use xlink:href="#m1c8b83a71a" x="626.006287" y="108.158906" style="fill: #0d9488; stroke: #0d9488"/>
     </g>
    </g>
    <g id="text_32">
     <text style="font-size: 9px; font-family: 'DejaVu Sans'; text-anchor: start" x="642.206287" y="111.308906" transform="rotate(-0 642.206287 111.308906)">2 middles · HTTP</text>
    </g>
    <g id="line2d_55">
     <path d="M 617.006287 121.369219
L 626.006287 121.369219
L 635.006287 121.369219
" style="fill: none; stroke: #9333ea; stroke-width: 2.3; stroke-linecap: square"/>
     <g>
      <use xlink:href="#m2aba450bf8" x="626.006287" y="121.369219" style="fill: #9333ea; stroke: #9333ea"/>
     </g>
    </g>
    <g id="text_33">
     <text style="font-size: 9px; font-family: 'DejaVu Sans'; text-anchor: start" x="642.206287" y="124.519219" transform="rotate(-0 642.206287 124.519219)">4 middles · HTTP</text>
    </g>
    <g id="line2d_56">
     <path d="M 617.006287 134.579531
L 626.006287 134.579531
L 635.006287 134.579531
" style="fill: none; stroke-dasharray: 8.51,3.68; stroke-dashoffset: 0; stroke: #2563eb; stroke-width: 2.3"/>
     <g>
      <use xlink:href="#m995cf30a0d" x="626.006287" y="134.579531" style="fill: #2563eb; stroke: #2563eb; stroke-linejoin: miter"/>
     </g>
    </g>
    <g id="text_34">
     <text style="font-size: 9px; font-family: 'DejaVu Sans'; text-anchor: start" x="642.206287" y="137.729531" transform="rotate(-0 642.206287 137.729531)">1 middle · UCXX</text>
    </g>
    <g id="line2d_57">
     <path d="M 617.006287 147.789844
L 626.006287 147.789844
L 635.006287 147.789844
" style="fill: none; stroke-dasharray: 8.51,3.68; stroke-dashoffset: 0; stroke: #0d9488; stroke-width: 2.3"/>
     <g>
      <use xlink:href="#m3bd399c2a4" x="626.006287" y="147.789844" style="fill: #0d9488; stroke: #0d9488; stroke-linejoin: miter"/>
     </g>
    </g>
    <g id="text_35">
     <text style="font-size: 9px; font-family: 'DejaVu Sans'; text-anchor: start" x="642.206287" y="150.939844" transform="rotate(-0 642.206287 150.939844)">2 middles · UCXX</text>
    </g>
    <g id="line2d_58">
     <path d="M 617.006287 161.000156
L 626.006287 161.000156
L 635.006287 161.000156
" style="fill: none; stroke-dasharray: 8.51,3.68; stroke-dashoffset: 0; stroke: #9333ea; stroke-width: 2.3"/>
     <g>
      <use xlink:href="#m907af44d4c" x="626.006287" y="161.000156" style="fill: #9333ea; stroke: #9333ea; stroke-linejoin: miter"/>
     </g>
    </g>
    <g id="text_36">
     <text style="font-size: 9px; font-family: 'DejaVu Sans'; text-anchor: start" x="642.206287" y="164.150156" transform="rotate(-0 642.206287 164.150156)">4 middles · UCXX</text>
    </g>
   </g>
  </g>
  <g id="text_37">
   <text style="font-weight: 700; font-size: 23px; font-family: 'DejaVu Sans'; text-anchor: start" x="56.16" y="25.396406" transform="rotate(-0 56.16 25.396406)">4 GiB payload fan-out</text>
  </g>
  <g id="text_38">
   <text style="font-size: 12px; font-family: 'DejaVu Sans'; text-anchor: start; fill: #475569" x="56.16" y="43.56" transform="rotate(-0 56.16 43.56)">Synthetic weight-sized buffer  •  4 GiB per client  •  GPU-host middles</text>
  </g>
  <g id="text_39">
   <text style="font-size: 9px; font-family: 'DejaVu Sans'; fill: #475569" transform="translate(56.16 373.970391)">Median of 3 measured rounds; shading shows min–max. One warm-up per configuration excluded.</text>
   <text style="font-size: 9px; font-family: 'DejaVu Sans'; fill: #475569" transform="translate(56.16 386.1)">Four GPU client hosts (up to 2 clients/host); existing active allocations. CPU buffers; no model loading.</text>
  </g>
 </g>
 <defs>
  <clipPath id="p852a22fd01">
   <rect x="64.8" y="83.16" width="339.157895" height="213.84"/>
  </clipPath>
  <clipPath id="p046b87a7e7">
   <rect x="498.922105" y="83.16" width="339.157895" height="213.84"/>
  </clipPath>
 </defs>
</svg>
